%TF.GenerationSoftware,KiCad,Pcbnew,10.0.4*%
%TF.CreationDate,2026-07-06T13:46:01-04:00*%
%TF.ProjectId,???,3f3f3f2e-6b69-4636-9164-5f7063625858,rev?*%
%TF.SameCoordinates,Original*%
%TF.FileFunction,Legend,Top*%
%TF.FilePolarity,Positive*%
%FSLAX46Y46*%
G04 Gerber Fmt 4.6, Leading zero omitted, Abs format (unit mm)*
G04 Created by KiCad (PCBNEW 10.0.4) date 2026-07-06 13:46:01*
%MOMM*%
%LPD*%
G01*
G04 APERTURE LIST*
%ADD10C,0.150000*%
%ADD11C,0.120000*%
G04 APERTURE END LIST*
D10*
X108738095Y-60454819D02*
X108738095Y-61264342D01*
X108738095Y-61264342D02*
X108785714Y-61359580D01*
X108785714Y-61359580D02*
X108833333Y-61407200D01*
X108833333Y-61407200D02*
X108928571Y-61454819D01*
X108928571Y-61454819D02*
X109119047Y-61454819D01*
X109119047Y-61454819D02*
X109214285Y-61407200D01*
X109214285Y-61407200D02*
X109261904Y-61359580D01*
X109261904Y-61359580D02*
X109309523Y-61264342D01*
X109309523Y-61264342D02*
X109309523Y-60454819D01*
X110309523Y-61454819D02*
X109738095Y-61454819D01*
X110023809Y-61454819D02*
X110023809Y-60454819D01*
X110023809Y-60454819D02*
X109928571Y-60597676D01*
X109928571Y-60597676D02*
X109833333Y-60692914D01*
X109833333Y-60692914D02*
X109738095Y-60740533D01*
X108166667Y-57207200D02*
X108309524Y-57254819D01*
X108309524Y-57254819D02*
X108547619Y-57254819D01*
X108547619Y-57254819D02*
X108642857Y-57207200D01*
X108642857Y-57207200D02*
X108690476Y-57159580D01*
X108690476Y-57159580D02*
X108738095Y-57064342D01*
X108738095Y-57064342D02*
X108738095Y-56969104D01*
X108738095Y-56969104D02*
X108690476Y-56873866D01*
X108690476Y-56873866D02*
X108642857Y-56826247D01*
X108642857Y-56826247D02*
X108547619Y-56778628D01*
X108547619Y-56778628D02*
X108357143Y-56731009D01*
X108357143Y-56731009D02*
X108261905Y-56683390D01*
X108261905Y-56683390D02*
X108214286Y-56635771D01*
X108214286Y-56635771D02*
X108166667Y-56540533D01*
X108166667Y-56540533D02*
X108166667Y-56445295D01*
X108166667Y-56445295D02*
X108214286Y-56350057D01*
X108214286Y-56350057D02*
X108261905Y-56302438D01*
X108261905Y-56302438D02*
X108357143Y-56254819D01*
X108357143Y-56254819D02*
X108595238Y-56254819D01*
X108595238Y-56254819D02*
X108738095Y-56302438D01*
X109071429Y-56254819D02*
X109309524Y-57254819D01*
X109309524Y-57254819D02*
X109500000Y-56540533D01*
X109500000Y-56540533D02*
X109690476Y-57254819D01*
X109690476Y-57254819D02*
X109928572Y-56254819D01*
X110833333Y-57254819D02*
X110261905Y-57254819D01*
X110547619Y-57254819D02*
X110547619Y-56254819D01*
X110547619Y-56254819D02*
X110452381Y-56397676D01*
X110452381Y-56397676D02*
X110357143Y-56492914D01*
X110357143Y-56492914D02*
X110261905Y-56540533D01*
X108166667Y-75207200D02*
X108309524Y-75254819D01*
X108309524Y-75254819D02*
X108547619Y-75254819D01*
X108547619Y-75254819D02*
X108642857Y-75207200D01*
X108642857Y-75207200D02*
X108690476Y-75159580D01*
X108690476Y-75159580D02*
X108738095Y-75064342D01*
X108738095Y-75064342D02*
X108738095Y-74969104D01*
X108738095Y-74969104D02*
X108690476Y-74873866D01*
X108690476Y-74873866D02*
X108642857Y-74826247D01*
X108642857Y-74826247D02*
X108547619Y-74778628D01*
X108547619Y-74778628D02*
X108357143Y-74731009D01*
X108357143Y-74731009D02*
X108261905Y-74683390D01*
X108261905Y-74683390D02*
X108214286Y-74635771D01*
X108214286Y-74635771D02*
X108166667Y-74540533D01*
X108166667Y-74540533D02*
X108166667Y-74445295D01*
X108166667Y-74445295D02*
X108214286Y-74350057D01*
X108214286Y-74350057D02*
X108261905Y-74302438D01*
X108261905Y-74302438D02*
X108357143Y-74254819D01*
X108357143Y-74254819D02*
X108595238Y-74254819D01*
X108595238Y-74254819D02*
X108738095Y-74302438D01*
X109071429Y-74254819D02*
X109309524Y-75254819D01*
X109309524Y-75254819D02*
X109500000Y-74540533D01*
X109500000Y-74540533D02*
X109690476Y-75254819D01*
X109690476Y-75254819D02*
X109928572Y-74254819D01*
X110261905Y-74350057D02*
X110309524Y-74302438D01*
X110309524Y-74302438D02*
X110404762Y-74254819D01*
X110404762Y-74254819D02*
X110642857Y-74254819D01*
X110642857Y-74254819D02*
X110738095Y-74302438D01*
X110738095Y-74302438D02*
X110785714Y-74350057D01*
X110785714Y-74350057D02*
X110833333Y-74445295D01*
X110833333Y-74445295D02*
X110833333Y-74540533D01*
X110833333Y-74540533D02*
X110785714Y-74683390D01*
X110785714Y-74683390D02*
X110214286Y-75254819D01*
X110214286Y-75254819D02*
X110833333Y-75254819D01*
X108166667Y-93207200D02*
X108309524Y-93254819D01*
X108309524Y-93254819D02*
X108547619Y-93254819D01*
X108547619Y-93254819D02*
X108642857Y-93207200D01*
X108642857Y-93207200D02*
X108690476Y-93159580D01*
X108690476Y-93159580D02*
X108738095Y-93064342D01*
X108738095Y-93064342D02*
X108738095Y-92969104D01*
X108738095Y-92969104D02*
X108690476Y-92873866D01*
X108690476Y-92873866D02*
X108642857Y-92826247D01*
X108642857Y-92826247D02*
X108547619Y-92778628D01*
X108547619Y-92778628D02*
X108357143Y-92731009D01*
X108357143Y-92731009D02*
X108261905Y-92683390D01*
X108261905Y-92683390D02*
X108214286Y-92635771D01*
X108214286Y-92635771D02*
X108166667Y-92540533D01*
X108166667Y-92540533D02*
X108166667Y-92445295D01*
X108166667Y-92445295D02*
X108214286Y-92350057D01*
X108214286Y-92350057D02*
X108261905Y-92302438D01*
X108261905Y-92302438D02*
X108357143Y-92254819D01*
X108357143Y-92254819D02*
X108595238Y-92254819D01*
X108595238Y-92254819D02*
X108738095Y-92302438D01*
X109071429Y-92254819D02*
X109309524Y-93254819D01*
X109309524Y-93254819D02*
X109500000Y-92540533D01*
X109500000Y-92540533D02*
X109690476Y-93254819D01*
X109690476Y-93254819D02*
X109928572Y-92254819D01*
X110214286Y-92254819D02*
X110833333Y-92254819D01*
X110833333Y-92254819D02*
X110500000Y-92635771D01*
X110500000Y-92635771D02*
X110642857Y-92635771D01*
X110642857Y-92635771D02*
X110738095Y-92683390D01*
X110738095Y-92683390D02*
X110785714Y-92731009D01*
X110785714Y-92731009D02*
X110833333Y-92826247D01*
X110833333Y-92826247D02*
X110833333Y-93064342D01*
X110833333Y-93064342D02*
X110785714Y-93159580D01*
X110785714Y-93159580D02*
X110738095Y-93207200D01*
X110738095Y-93207200D02*
X110642857Y-93254819D01*
X110642857Y-93254819D02*
X110357143Y-93254819D01*
X110357143Y-93254819D02*
X110261905Y-93207200D01*
X110261905Y-93207200D02*
X110214286Y-93159580D01*
%TO.C,U1*%
D11*
X100600000Y-52000000D02*
X118400000Y-52000000D01*
X118400000Y-52000000D02*
X118400000Y-73000000D01*
X118400000Y-73000000D02*
X100600000Y-73000000D01*
X100600000Y-73000000D02*
X100600000Y-52000000D01*
X105000000Y-50600000D02*
X114000000Y-50600000D01*
X114000000Y-57900000D01*
X105000000Y-57900000D01*
X105000000Y-50600000D01*
%TO.C,SW1*%
X102500000Y-58000000D02*
X116500000Y-58000000D01*
X116500000Y-58000000D02*
X116500000Y-72000000D01*
X116500000Y-72000000D02*
X102500000Y-72000000D01*
X102500000Y-72000000D02*
X102500000Y-58000000D01*
%TO.C,SW2*%
X102500000Y-76000000D02*
X116500000Y-76000000D01*
X116500000Y-76000000D02*
X116500000Y-90000000D01*
X116500000Y-90000000D02*
X102500000Y-90000000D01*
X102500000Y-90000000D02*
X102500000Y-76000000D01*
%TO.C,SW3*%
X102500000Y-94000000D02*
X116500000Y-94000000D01*
X116500000Y-94000000D02*
X116500000Y-108000000D01*
X116500000Y-108000000D02*
X102500000Y-108000000D01*
X102500000Y-108000000D02*
X102500000Y-94000000D01*
%TD*%
M02*
