<?xml version="1.0" standalone="no"?>
 <!DOCTYPE svg PUBLIC "-//W3C//DTD SVG 1.1//EN" 
 "http://www.w3.org/Graphics/SVG/1.1/DTD/svg11.dtd"> 
<svg
  xmlns:svg="http://www.w3.org/2000/svg"
  xmlns="http://www.w3.org/2000/svg"
  xmlns:xlink="http://www.w3.org/1999/xlink"
  xmlns:inkscape="http://www.inkscape.org/namespaces/inkscape"
  version="1.1"
  width="18.9992mm" height="56.4896mm" viewBox="0.0000 0.0000 18.9992 56.4896">
<title>SVG Image created as pcb.svg date 2026-07-06T13:52:34 </title>
  <desc>Image generated by PCBNEW </desc>
<g style="fill:#000000; fill-opacity:1.0000;stroke:#000000; stroke-opacity:1.0000;
stroke-linecap:round; stroke-linejoin:round;"
 transform="translate(0 0) scale(1 1)">
</g>
<g style="fill:none; 
stroke:#C872AB; stroke-width:0.1500; stroke-opacity:1; 
stroke-linecap:round; stroke-linejoin:round;">
<path d="M-201.0000 -37.5000
L-93.0000 -37.5000
L-93.0000 -5.5000
L-201.0000 -5.5000
L-201.0000 -37.5000
" />
<path d="M-90.0000 -40.0000
L-91.0000 -40.0000
L-91.0000 -3.5000
L-90.0000 -3.5000
L-90.0000 -40.0000
" />
<path d="M-40.0000 -38.0000
L-40.0000 -40.0000
" />
<text x="-65.0000" y="-38.3500"
textLength="1.4281" font-size="1.7333" lengthAdjust="spacingAndGlyphs"
text-anchor="start" opacity="0" stroke-opacity="0">1</text>
<g class="stroked-text"><desc>1</desc>
<path d="M-63.9108 -38.4064
L-64.6537 -38.4064
" />
<path d="M-64.2823 -38.4064
L-64.2823 -39.7064
" />
<path d="M-64.2823 -39.7064
L-64.4061 -39.5207
" />
<path d="M-64.4061 -39.5207
L-64.5299 -39.3969
" />
<path d="M-64.5299 -39.3969
L-64.6537 -39.3350
" />
</g><path d="M-40.0000 -5.5000
L-40.0000 -3.5000
" />
<text x="-65.0000" y="-3.8500"
textLength="1.4281" font-size="1.7333" lengthAdjust="spacingAndGlyphs"
text-anchor="start" opacity="0" stroke-opacity="0">1</text>
<g class="stroked-text"><desc>1</desc>
<path d="M-63.9108 -3.9064
L-64.6537 -3.9064
" />
<path d="M-64.2823 -3.9064
L-64.2823 -5.2064
" />
<path d="M-64.2823 -5.2064
L-64.4061 -5.0207
" />
<path d="M-64.4061 -5.0207
L-64.5299 -4.8969
" />
<path d="M-64.5299 -4.8969
L-64.6537 -4.8350
" />
</g><path d="M-90.0000 10.0000
L-88.0000 10.0000
" />
<text x="-89.0000" y="-14.3500"
textLength="1.3043" font-size="1.7333" lengthAdjust="spacingAndGlyphs"
text-anchor="middle" opacity="0" stroke-opacity="0">A</text>
<g class="stroked-text"><desc>A</desc>
<path d="M-89.3095 -14.7778
L-88.6905 -14.7778
" />
<path d="M-89.4333 -14.4064
L-89.0000 -15.7064
" />
<path d="M-89.0000 -15.7064
L-88.5667 -14.4064
" />
</g><path d="M-91.0000 10.0000
L-93.0000 10.0000
" />
<text x="-92.0000" y="-14.3500"
textLength="1.3043" font-size="1.7333" lengthAdjust="spacingAndGlyphs"
text-anchor="middle" opacity="0" stroke-opacity="0">A</text>
<g class="stroked-text"><desc>A</desc>
<path d="M-92.3095 -14.7778
L-91.6905 -14.7778
" />
<path d="M-92.4333 -14.4064
L-92.0000 -15.7064
" />
<path d="M-92.0000 -15.7064
L-91.5667 -14.4064
" />
</g><text x="-178.0000" y="-9.6500"
textLength="7.0071" font-size="2.0000" lengthAdjust="spacingAndGlyphs"
text-anchor="start" opacity="0" stroke-opacity="0">Date: </text>
<g class="stroked-text"><desc>Date: </desc>
<path d="M-177.5442 -9.7139
L-177.5442 -11.2139
" />
<path d="M-177.5442 -11.2139
L-177.1870 -11.2139
" />
<path d="M-177.1870 -11.2139
L-176.9727 -11.1424
" />
<path d="M-176.9727 -11.1424
L-176.8299 -10.9996
" />
<path d="M-176.8299 -10.9996
L-176.7585 -10.8567
" />
<path d="M-176.7585 -10.8567
L-176.6870 -10.5710
" />
<path d="M-176.6870 -10.5710
L-176.6870 -10.3567
" />
<path d="M-176.6870 -10.3567
L-176.7585 -10.0710
" />
<path d="M-176.7585 -10.0710
L-176.8299 -9.9282
" />
<path d="M-176.8299 -9.9282
L-176.9727 -9.7853
" />
<path d="M-176.9727 -9.7853
L-177.1870 -9.7139
" />
<path d="M-177.1870 -9.7139
L-177.5442 -9.7139
" />
<path d="M-175.4013 -9.7139
L-175.4013 -10.4996
" />
<path d="M-175.4013 -10.4996
L-175.4727 -10.6424
" />
<path d="M-175.4727 -10.6424
L-175.6156 -10.7139
" />
<path d="M-175.6156 -10.7139
L-175.9013 -10.7139
" />
<path d="M-175.9013 -10.7139
L-176.0442 -10.6424
" />
<path d="M-175.4013 -9.7853
L-175.5442 -9.7139
" />
<path d="M-175.5442 -9.7139
L-175.9013 -9.7139
" />
<path d="M-175.9013 -9.7139
L-176.0442 -9.7853
" />
<path d="M-176.0442 -9.7853
L-176.1156 -9.9282
" />
<path d="M-176.1156 -9.9282
L-176.1156 -10.0710
" />
<path d="M-176.1156 -10.0710
L-176.0442 -10.2139
" />
<path d="M-176.0442 -10.2139
L-175.9013 -10.2853
" />
<path d="M-175.9013 -10.2853
L-175.5442 -10.2853
" />
<path d="M-175.5442 -10.2853
L-175.4013 -10.3567
" />
<path d="M-174.9013 -10.7139
L-174.3299 -10.7139
" />
<path d="M-174.6870 -11.2139
L-174.6870 -9.9282
" />
<path d="M-174.6870 -9.9282
L-174.6156 -9.7853
" />
<path d="M-174.6156 -9.7853
L-174.4727 -9.7139
" />
<path d="M-174.4727 -9.7139
L-174.3299 -9.7139
" />
<path d="M-173.2585 -9.7853
L-173.4013 -9.7139
" />
<path d="M-173.4013 -9.7139
L-173.6870 -9.7139
" />
<path d="M-173.6870 -9.7139
L-173.8299 -9.7853
" />
<path d="M-173.8299 -9.7853
L-173.9013 -9.9282
" />
<path d="M-173.9013 -9.9282
L-173.9013 -10.4996
" />
<path d="M-173.9013 -10.4996
L-173.8299 -10.6424
" />
<path d="M-173.8299 -10.6424
L-173.6870 -10.7139
" />
<path d="M-173.6870 -10.7139
L-173.4013 -10.7139
" />
<path d="M-173.4013 -10.7139
L-173.2585 -10.6424
" />
<path d="M-173.2585 -10.6424
L-173.1870 -10.4996
" />
<path d="M-173.1870 -10.4996
L-173.1870 -10.3567
" />
<path d="M-173.1870 -10.3567
L-173.9013 -10.2139
" />
<path d="M-172.5442 -9.8567
L-172.4727 -9.7853
" />
<path d="M-172.4727 -9.7853
L-172.5442 -9.7139
" />
<path d="M-172.5442 -9.7139
L-172.6156 -9.7853
" />
<path d="M-172.6156 -9.7853
L-172.5442 -9.8567
" />
<path d="M-172.5442 -9.8567
L-172.5442 -9.7139
" />
<path d="M-172.5442 -10.6424
L-172.4727 -10.5710
" />
<path d="M-172.4727 -10.5710
L-172.5442 -10.4996
" />
<path d="M-172.5442 -10.4996
L-172.6156 -10.5710
" />
<path d="M-172.6156 -10.5710
L-172.5442 -10.6424
" />
<path d="M-172.5442 -10.6424
L-172.5442 -10.4996
" />
</g><path d="M-201.0000 -9.0000
L-93.0000 -9.0000
" />
<text x="-200.0000" y="-6.8500"
textLength="22.2929" font-size="2.0000" lengthAdjust="spacingAndGlyphs"
text-anchor="start" opacity="0" stroke-opacity="0">KiCad E.D.A. 10.0.4</text>
<g class="stroked-text"><desc>KiCad E.D.A. 10.0.4</desc>
<path d="M-199.5442 -6.9139
L-199.5442 -8.4139
" />
<path d="M-198.6870 -6.9139
L-199.3299 -7.7710
" />
<path d="M-198.6870 -8.4139
L-199.5442 -7.5567
" />
<path d="M-198.0442 -6.9139
L-198.0442 -7.9139
" />
<path d="M-198.0442 -8.4139
L-198.1156 -8.3424
" />
<path d="M-198.1156 -8.3424
L-198.0442 -8.2710
" />
<path d="M-198.0442 -8.2710
L-197.9727 -8.3424
" />
<path d="M-197.9727 -8.3424
L-198.0442 -8.4139
" />
<path d="M-198.0442 -8.4139
L-198.0442 -8.2710
" />
<path d="M-196.4727 -7.0567
L-196.5442 -6.9853
" />
<path d="M-196.5442 -6.9853
L-196.7585 -6.9139
" />
<path d="M-196.7585 -6.9139
L-196.9013 -6.9139
" />
<path d="M-196.9013 -6.9139
L-197.1156 -6.9853
" />
<path d="M-197.1156 -6.9853
L-197.2585 -7.1282
" />
<path d="M-197.2585 -7.1282
L-197.3299 -7.2710
" />
<path d="M-197.3299 -7.2710
L-197.4013 -7.5567
" />
<path d="M-197.4013 -7.5567
L-197.4013 -7.7710
" />
<path d="M-197.4013 -7.7710
L-197.3299 -8.0567
" />
<path d="M-197.3299 -8.0567
L-197.2585 -8.1996
" />
<path d="M-197.2585 -8.1996
L-197.1156 -8.3424
" />
<path d="M-197.1156 -8.3424
L-196.9013 -8.4139
" />
<path d="M-196.9013 -8.4139
L-196.7585 -8.4139
" />
<path d="M-196.7585 -8.4139
L-196.5442 -8.3424
" />
<path d="M-196.5442 -8.3424
L-196.4727 -8.2710
" />
<path d="M-195.1870 -6.9139
L-195.1870 -7.6996
" />
<path d="M-195.1870 -7.6996
L-195.2585 -7.8424
" />
<path d="M-195.2585 -7.8424
L-195.4013 -7.9139
" />
<path d="M-195.4013 -7.9139
L-195.6870 -7.9139
" />
<path d="M-195.6870 -7.9139
L-195.8299 -7.8424
" />
<path d="M-195.1870 -6.9853
L-195.3299 -6.9139
" />
<path d="M-195.3299 -6.9139
L-195.6870 -6.9139
" />
<path d="M-195.6870 -6.9139
L-195.8299 -6.9853
" />
<path d="M-195.8299 -6.9853
L-195.9013 -7.1282
" />
<path d="M-195.9013 -7.1282
L-195.9013 -7.2710
" />
<path d="M-195.9013 -7.2710
L-195.8299 -7.4139
" />
<path d="M-195.8299 -7.4139
L-195.6870 -7.4853
" />
<path d="M-195.6870 -7.4853
L-195.3299 -7.4853
" />
<path d="M-195.3299 -7.4853
L-195.1870 -7.5567
" />
<path d="M-193.8299 -6.9139
L-193.8299 -8.4139
" />
<path d="M-193.8299 -6.9853
L-193.9727 -6.9139
" />
<path d="M-193.9727 -6.9139
L-194.2585 -6.9139
" />
<path d="M-194.2585 -6.9139
L-194.4013 -6.9853
" />
<path d="M-194.4013 -6.9853
L-194.4727 -7.0567
" />
<path d="M-194.4727 -7.0567
L-194.5442 -7.1996
" />
<path d="M-194.5442 -7.1996
L-194.5442 -7.6282
" />
<path d="M-194.5442 -7.6282
L-194.4727 -7.7710
" />
<path d="M-194.4727 -7.7710
L-194.4013 -7.8424
" />
<path d="M-194.4013 -7.8424
L-194.2585 -7.9139
" />
<path d="M-194.2585 -7.9139
L-193.9727 -7.9139
" />
<path d="M-193.9727 -7.9139
L-193.8299 -7.8424
" />
<path d="M-191.9727 -7.6996
L-191.4727 -7.6996
" />
<path d="M-191.2585 -6.9139
L-191.9727 -6.9139
" />
<path d="M-191.9727 -6.9139
L-191.9727 -8.4139
" />
<path d="M-191.9727 -8.4139
L-191.2585 -8.4139
" />
<path d="M-190.6156 -7.0567
L-190.5442 -6.9853
" />
<path d="M-190.5442 -6.9853
L-190.6156 -6.9139
" />
<path d="M-190.6156 -6.9139
L-190.6870 -6.9853
" />
<path d="M-190.6870 -6.9853
L-190.6156 -7.0567
" />
<path d="M-190.6156 -7.0567
L-190.6156 -6.9139
" />
<path d="M-189.9013 -6.9139
L-189.9013 -8.4139
" />
<path d="M-189.9013 -8.4139
L-189.5442 -8.4139
" />
<path d="M-189.5442 -8.4139
L-189.3299 -8.3424
" />
<path d="M-189.3299 -8.3424
L-189.1870 -8.1996
" />
<path d="M-189.1870 -8.1996
L-189.1156 -8.0567
" />
<path d="M-189.1156 -8.0567
L-189.0442 -7.7710
" />
<path d="M-189.0442 -7.7710
L-189.0442 -7.5567
" />
<path d="M-189.0442 -7.5567
L-189.1156 -7.2710
" />
<path d="M-189.1156 -7.2710
L-189.1870 -7.1282
" />
<path d="M-189.1870 -7.1282
L-189.3299 -6.9853
" />
<path d="M-189.3299 -6.9853
L-189.5442 -6.9139
" />
<path d="M-189.5442 -6.9139
L-189.9013 -6.9139
" />
<path d="M-188.4013 -7.0567
L-188.3299 -6.9853
" />
<path d="M-188.3299 -6.9853
L-188.4013 -6.9139
" />
<path d="M-188.4013 -6.9139
L-188.4727 -6.9853
" />
<path d="M-188.4727 -6.9853
L-188.4013 -7.0567
" />
<path d="M-188.4013 -7.0567
L-188.4013 -6.9139
" />
<path d="M-187.7585 -7.3424
L-187.0442 -7.3424
" />
<path d="M-187.9013 -6.9139
L-187.4013 -8.4139
" />
<path d="M-187.4013 -8.4139
L-186.9013 -6.9139
" />
<path d="M-186.4013 -7.0567
L-186.3299 -6.9853
" />
<path d="M-186.3299 -6.9853
L-186.4013 -6.9139
" />
<path d="M-186.4013 -6.9139
L-186.4727 -6.9853
" />
<path d="M-186.4727 -6.9853
L-186.4013 -7.0567
" />
<path d="M-186.4013 -7.0567
L-186.4013 -6.9139
" />
<path d="M-183.7585 -6.9139
L-184.6156 -6.9139
" />
<path d="M-184.1870 -6.9139
L-184.1870 -8.4139
" />
<path d="M-184.1870 -8.4139
L-184.3299 -8.1996
" />
<path d="M-184.3299 -8.1996
L-184.4727 -8.0567
" />
<path d="M-184.4727 -8.0567
L-184.6156 -7.9853
" />
<path d="M-182.8299 -8.4139
L-182.6870 -8.4139
" />
<path d="M-182.6870 -8.4139
L-182.5442 -8.3424
" />
<path d="M-182.5442 -8.3424
L-182.4727 -8.2710
" />
<path d="M-182.4727 -8.2710
L-182.4013 -8.1282
" />
<path d="M-182.4013 -8.1282
L-182.3299 -7.8424
" />
<path d="M-182.3299 -7.8424
L-182.3299 -7.4853
" />
<path d="M-182.3299 -7.4853
L-182.4013 -7.1996
" />
<path d="M-182.4013 -7.1996
L-182.4727 -7.0567
" />
<path d="M-182.4727 -7.0567
L-182.5442 -6.9853
" />
<path d="M-182.5442 -6.9853
L-182.6870 -6.9139
" />
<path d="M-182.6870 -6.9139
L-182.8299 -6.9139
" />
<path d="M-182.8299 -6.9139
L-182.9727 -6.9853
" />
<path d="M-182.9727 -6.9853
L-183.0442 -7.0567
" />
<path d="M-183.0442 -7.0567
L-183.1156 -7.1996
" />
<path d="M-183.1156 -7.1996
L-183.1870 -7.4853
" />
<path d="M-183.1870 -7.4853
L-183.1870 -7.8424
" />
<path d="M-183.1870 -7.8424
L-183.1156 -8.1282
" />
<path d="M-183.1156 -8.1282
L-183.0442 -8.2710
" />
<path d="M-183.0442 -8.2710
L-182.9727 -8.3424
" />
<path d="M-182.9727 -8.3424
L-182.8299 -8.4139
" />
<path d="M-181.6870 -7.0567
L-181.6156 -6.9853
" />
<path d="M-181.6156 -6.9853
L-181.6870 -6.9139
" />
<path d="M-181.6870 -6.9139
L-181.7585 -6.9853
" />
<path d="M-181.7585 -6.9853
L-181.6870 -7.0567
" />
<path d="M-181.6870 -7.0567
L-181.6870 -6.9139
" />
<path d="M-180.6870 -8.4139
L-180.5442 -8.4139
" />
<path d="M-180.5442 -8.4139
L-180.4013 -8.3424
" />
<path d="M-180.4013 -8.3424
L-180.3299 -8.2710
" />
<path d="M-180.3299 -8.2710
L-180.2585 -8.1282
" />
<path d="M-180.2585 -8.1282
L-180.1870 -7.8424
" />
<path d="M-180.1870 -7.8424
L-180.1870 -7.4853
" />
<path d="M-180.1870 -7.4853
L-180.2585 -7.1996
" />
<path d="M-180.2585 -7.1996
L-180.3299 -7.0567
" />
<path d="M-180.3299 -7.0567
L-180.4013 -6.9853
" />
<path d="M-180.4013 -6.9853
L-180.5442 -6.9139
" />
<path d="M-180.5442 -6.9139
L-180.6870 -6.9139
" />
<path d="M-180.6870 -6.9139
L-180.8299 -6.9853
" />
<path d="M-180.8299 -6.9853
L-180.9013 -7.0567
" />
<path d="M-180.9013 -7.0567
L-180.9727 -7.1996
" />
<path d="M-180.9727 -7.1996
L-181.0442 -7.4853
" />
<path d="M-181.0442 -7.4853
L-181.0442 -7.8424
" />
<path d="M-181.0442 -7.8424
L-180.9727 -8.1282
" />
<path d="M-180.9727 -8.1282
L-180.9013 -8.2710
" />
<path d="M-180.9013 -8.2710
L-180.8299 -8.3424
" />
<path d="M-180.8299 -8.3424
L-180.6870 -8.4139
" />
<path d="M-179.5442 -7.0567
L-179.4727 -6.9853
" />
<path d="M-179.4727 -6.9853
L-179.5442 -6.9139
" />
<path d="M-179.5442 -6.9139
L-179.6156 -6.9853
" />
<path d="M-179.6156 -6.9853
L-179.5442 -7.0567
" />
<path d="M-179.5442 -7.0567
L-179.5442 -6.9139
" />
<path d="M-178.1870 -7.9139
L-178.1870 -6.9139
" />
<path d="M-178.5442 -8.4853
L-178.9013 -7.4139
" />
<path d="M-178.9013 -7.4139
L-177.9727 -7.4139
" />
</g><path d="M-201.0000 -12.0000
L-93.0000 -12.0000
" />
</g>
<g style="fill:none; 
stroke:#C872AB; stroke-width:0.3000; stroke-opacity:1; 
stroke-linecap:round; stroke-linejoin:round;">
<text x="-115.0000" y="-9.6500"
textLength="6.3857" font-size="2.0000" lengthAdjust="spacingAndGlyphs"
text-anchor="start" opacity="0" stroke-opacity="0">Rev: </text>
<g class="stroked-text"><desc>Rev: </desc>
<path d="M-113.5883 -9.7217
L-114.0883 -10.4360
" />
<path d="M-114.4455 -9.7217
L-114.4455 -11.2217
" />
<path d="M-114.4455 -11.2217
L-113.8741 -11.2217
" />
<path d="M-113.8741 -11.2217
L-113.7312 -11.1502
" />
<path d="M-113.7312 -11.1502
L-113.6598 -11.0788
" />
<path d="M-113.6598 -11.0788
L-113.5883 -10.9360
" />
<path d="M-113.5883 -10.9360
L-113.5883 -10.7217
" />
<path d="M-113.5883 -10.7217
L-113.6598 -10.5788
" />
<path d="M-113.6598 -10.5788
L-113.7312 -10.5074
" />
<path d="M-113.7312 -10.5074
L-113.8741 -10.4360
" />
<path d="M-113.8741 -10.4360
L-114.4455 -10.4360
" />
<path d="M-112.3741 -9.7931
L-112.5169 -9.7217
" />
<path d="M-112.5169 -9.7217
L-112.8026 -9.7217
" />
<path d="M-112.8026 -9.7217
L-112.9455 -9.7931
" />
<path d="M-112.9455 -9.7931
L-113.0169 -9.9360
" />
<path d="M-113.0169 -9.9360
L-113.0169 -10.5074
" />
<path d="M-113.0169 -10.5074
L-112.9455 -10.6502
" />
<path d="M-112.9455 -10.6502
L-112.8026 -10.7217
" />
<path d="M-112.8026 -10.7217
L-112.5169 -10.7217
" />
<path d="M-112.5169 -10.7217
L-112.3741 -10.6502
" />
<path d="M-112.3741 -10.6502
L-112.3026 -10.5074
" />
<path d="M-112.3026 -10.5074
L-112.3026 -10.3645
" />
<path d="M-112.3026 -10.3645
L-113.0169 -10.2217
" />
<path d="M-111.8026 -10.7217
L-111.4455 -9.7217
" />
<path d="M-111.4455 -9.7217
L-111.0883 -10.7217
" />
<path d="M-110.5169 -9.8645
L-110.4455 -9.7931
" />
<path d="M-110.4455 -9.7931
L-110.5169 -9.7217
" />
<path d="M-110.5169 -9.7217
L-110.5883 -9.7931
" />
<path d="M-110.5883 -9.7931
L-110.5169 -9.8645
" />
<path d="M-110.5169 -9.8645
L-110.5169 -9.7217
" />
<path d="M-110.5169 -10.6502
L-110.4455 -10.5788
" />
<path d="M-110.4455 -10.5788
L-110.5169 -10.5074
" />
<path d="M-110.5169 -10.5074
L-110.5883 -10.5788
" />
<path d="M-110.5883 -10.5788
L-110.5169 -10.6502
" />
<path d="M-110.5169 -10.6502
L-110.5169 -10.5074
" />
</g></g>
<g style="fill:none; 
stroke:#C872AB; stroke-width:0.1500; stroke-opacity:1; 
stroke-linecap:round; stroke-linejoin:round;">
<text x="-200.0000" y="-9.6500"
textLength="11.6500" font-size="2.0000" lengthAdjust="spacingAndGlyphs"
text-anchor="start" opacity="0" stroke-opacity="0">Size: User</text>
<g class="stroked-text"><desc>Size: User</desc>
<path d="M-199.6156 -9.7853
L-199.4013 -9.7139
" />
<path d="M-199.4013 -9.7139
L-199.0442 -9.7139
" />
<path d="M-199.0442 -9.7139
L-198.9013 -9.7853
" />
<path d="M-198.9013 -9.7853
L-198.8299 -9.8567
" />
<path d="M-198.8299 -9.8567
L-198.7585 -9.9996
" />
<path d="M-198.7585 -9.9996
L-198.7585 -10.1424
" />
<path d="M-198.7585 -10.1424
L-198.8299 -10.2853
" />
<path d="M-198.8299 -10.2853
L-198.9013 -10.3567
" />
<path d="M-198.9013 -10.3567
L-199.0442 -10.4282
" />
<path d="M-199.0442 -10.4282
L-199.3299 -10.4996
" />
<path d="M-199.3299 -10.4996
L-199.4727 -10.5710
" />
<path d="M-199.4727 -10.5710
L-199.5442 -10.6424
" />
<path d="M-199.5442 -10.6424
L-199.6156 -10.7853
" />
<path d="M-199.6156 -10.7853
L-199.6156 -10.9282
" />
<path d="M-199.6156 -10.9282
L-199.5442 -11.0710
" />
<path d="M-199.5442 -11.0710
L-199.4727 -11.1424
" />
<path d="M-199.4727 -11.1424
L-199.3299 -11.2139
" />
<path d="M-199.3299 -11.2139
L-198.9727 -11.2139
" />
<path d="M-198.9727 -11.2139
L-198.7585 -11.1424
" />
<path d="M-198.1156 -9.7139
L-198.1156 -10.7139
" />
<path d="M-198.1156 -11.2139
L-198.1870 -11.1424
" />
<path d="M-198.1870 -11.1424
L-198.1156 -11.0710
" />
<path d="M-198.1156 -11.0710
L-198.0442 -11.1424
" />
<path d="M-198.0442 -11.1424
L-198.1156 -11.2139
" />
<path d="M-198.1156 -11.2139
L-198.1156 -11.0710
" />
<path d="M-197.5442 -10.7139
L-196.7585 -10.7139
" />
<path d="M-196.7585 -10.7139
L-197.5442 -9.7139
" />
<path d="M-197.5442 -9.7139
L-196.7585 -9.7139
" />
<path d="M-195.6156 -9.7853
L-195.7585 -9.7139
" />
<path d="M-195.7585 -9.7139
L-196.0442 -9.7139
" />
<path d="M-196.0442 -9.7139
L-196.1870 -9.7853
" />
<path d="M-196.1870 -9.7853
L-196.2585 -9.9282
" />
<path d="M-196.2585 -9.9282
L-196.2585 -10.4996
" />
<path d="M-196.2585 -10.4996
L-196.1870 -10.6424
" />
<path d="M-196.1870 -10.6424
L-196.0442 -10.7139
" />
<path d="M-196.0442 -10.7139
L-195.7585 -10.7139
" />
<path d="M-195.7585 -10.7139
L-195.6156 -10.6424
" />
<path d="M-195.6156 -10.6424
L-195.5442 -10.4996
" />
<path d="M-195.5442 -10.4996
L-195.5442 -10.3567
" />
<path d="M-195.5442 -10.3567
L-196.2585 -10.2139
" />
<path d="M-194.9013 -9.8567
L-194.8299 -9.7853
" />
<path d="M-194.8299 -9.7853
L-194.9013 -9.7139
" />
<path d="M-194.9013 -9.7139
L-194.9727 -9.7853
" />
<path d="M-194.9727 -9.7853
L-194.9013 -9.8567
" />
<path d="M-194.9013 -9.8567
L-194.9013 -9.7139
" />
<path d="M-194.9013 -10.6424
L-194.8299 -10.5710
" />
<path d="M-194.8299 -10.5710
L-194.9013 -10.4996
" />
<path d="M-194.9013 -10.4996
L-194.9727 -10.5710
" />
<path d="M-194.9727 -10.5710
L-194.9013 -10.6424
" />
<path d="M-194.9013 -10.6424
L-194.9013 -10.4996
" />
<path d="M-193.0442 -11.2139
L-193.0442 -9.9996
" />
<path d="M-193.0442 -9.9996
L-192.9727 -9.8567
" />
<path d="M-192.9727 -9.8567
L-192.9013 -9.7853
" />
<path d="M-192.9013 -9.7853
L-192.7585 -9.7139
" />
<path d="M-192.7585 -9.7139
L-192.4727 -9.7139
" />
<path d="M-192.4727 -9.7139
L-192.3299 -9.7853
" />
<path d="M-192.3299 -9.7853
L-192.2585 -9.8567
" />
<path d="M-192.2585 -9.8567
L-192.1870 -9.9996
" />
<path d="M-192.1870 -9.9996
L-192.1870 -11.2139
" />
<path d="M-191.5442 -9.7853
L-191.4013 -9.7139
" />
<path d="M-191.4013 -9.7139
L-191.1156 -9.7139
" />
<path d="M-191.1156 -9.7139
L-190.9727 -9.7853
" />
<path d="M-190.9727 -9.7853
L-190.9013 -9.9282
" />
<path d="M-190.9013 -9.9282
L-190.9013 -9.9996
" />
<path d="M-190.9013 -9.9996
L-190.9727 -10.1424
" />
<path d="M-190.9727 -10.1424
L-191.1156 -10.2139
" />
<path d="M-191.1156 -10.2139
L-191.3299 -10.2139
" />
<path d="M-191.3299 -10.2139
L-191.4727 -10.2853
" />
<path d="M-191.4727 -10.2853
L-191.5442 -10.4282
" />
<path d="M-191.5442 -10.4282
L-191.5442 -10.4996
" />
<path d="M-191.5442 -10.4996
L-191.4727 -10.6424
" />
<path d="M-191.4727 -10.6424
L-191.3299 -10.7139
" />
<path d="M-191.3299 -10.7139
L-191.1156 -10.7139
" />
<path d="M-191.1156 -10.7139
L-190.9727 -10.6424
" />
<path d="M-189.6870 -9.7853
L-189.8299 -9.7139
" />
<path d="M-189.8299 -9.7139
L-190.1156 -9.7139
" />
<path d="M-190.1156 -9.7139
L-190.2585 -9.7853
" />
<path d="M-190.2585 -9.7853
L-190.3299 -9.9282
" />
<path d="M-190.3299 -9.9282
L-190.3299 -10.4996
" />
<path d="M-190.3299 -10.4996
L-190.2585 -10.6424
" />
<path d="M-190.2585 -10.6424
L-190.1156 -10.7139
" />
<path d="M-190.1156 -10.7139
L-189.8299 -10.7139
" />
<path d="M-189.8299 -10.7139
L-189.6870 -10.6424
" />
<path d="M-189.6870 -10.6424
L-189.6156 -10.4996
" />
<path d="M-189.6156 -10.4996
L-189.6156 -10.3567
" />
<path d="M-189.6156 -10.3567
L-190.3299 -10.2139
" />
<path d="M-188.9727 -9.7139
L-188.9727 -10.7139
" />
<path d="M-188.9727 -10.4282
L-188.9013 -10.5710
" />
<path d="M-188.9013 -10.5710
L-188.8299 -10.6424
" />
<path d="M-188.8299 -10.6424
L-188.6870 -10.7139
" />
<path d="M-188.6870 -10.7139
L-188.5442 -10.7139
" />
</g><text x="-115.0000" y="-6.8500"
textLength="8.5071" font-size="2.0000" lengthAdjust="spacingAndGlyphs"
text-anchor="start" opacity="0" stroke-opacity="0">Id: 1/1</text>
<g class="stroked-text"><desc>Id: 1/1</desc>
<path d="M-114.5442 -6.9139
L-114.5442 -8.4139
" />
<path d="M-113.1870 -6.9139
L-113.1870 -8.4139
" />
<path d="M-113.1870 -6.9853
L-113.3299 -6.9139
" />
<path d="M-113.3299 -6.9139
L-113.6156 -6.9139
" />
<path d="M-113.6156 -6.9139
L-113.7585 -6.9853
" />
<path d="M-113.7585 -6.9853
L-113.8299 -7.0567
" />
<path d="M-113.8299 -7.0567
L-113.9013 -7.1996
" />
<path d="M-113.9013 -7.1996
L-113.9013 -7.6282
" />
<path d="M-113.9013 -7.6282
L-113.8299 -7.7710
" />
<path d="M-113.8299 -7.7710
L-113.7585 -7.8424
" />
<path d="M-113.7585 -7.8424
L-113.6156 -7.9139
" />
<path d="M-113.6156 -7.9139
L-113.3299 -7.9139
" />
<path d="M-113.3299 -7.9139
L-113.1870 -7.8424
" />
<path d="M-112.4727 -7.0567
L-112.4013 -6.9853
" />
<path d="M-112.4013 -6.9853
L-112.4727 -6.9139
" />
<path d="M-112.4727 -6.9139
L-112.5442 -6.9853
" />
<path d="M-112.5442 -6.9853
L-112.4727 -7.0567
" />
<path d="M-112.4727 -7.0567
L-112.4727 -6.9139
" />
<path d="M-112.4727 -7.8424
L-112.4013 -7.7710
" />
<path d="M-112.4013 -7.7710
L-112.4727 -7.6996
" />
<path d="M-112.4727 -7.6996
L-112.5442 -7.7710
" />
<path d="M-112.5442 -7.7710
L-112.4727 -7.8424
" />
<path d="M-112.4727 -7.8424
L-112.4727 -7.6996
" />
<path d="M-109.8299 -6.9139
L-110.6870 -6.9139
" />
<path d="M-110.2585 -6.9139
L-110.2585 -8.4139
" />
<path d="M-110.2585 -8.4139
L-110.4013 -8.1996
" />
<path d="M-110.4013 -8.1996
L-110.5442 -8.0567
" />
<path d="M-110.5442 -8.0567
L-110.6870 -7.9853
" />
<path d="M-108.1156 -8.4853
L-109.4013 -6.5567
" />
<path d="M-106.8299 -6.9139
L-107.6870 -6.9139
" />
<path d="M-107.2585 -6.9139
L-107.2585 -8.4139
" />
<path d="M-107.2585 -8.4139
L-107.4013 -8.1996
" />
<path d="M-107.4013 -8.1996
L-107.5442 -8.0567
" />
<path d="M-107.5442 -8.0567
L-107.6870 -7.9853
" />
</g><path d="M-201.0000 -16.0000
L-93.0000 -16.0000
" />
</g>
<g style="fill:none; 
stroke:#C872AB; stroke-width:0.4000; stroke-opacity:1; 
stroke-linecap:round; stroke-linejoin:round;">
<text x="-200.0000" y="-13.2000"
textLength="9.6571" font-size="2.6667" lengthAdjust="spacingAndGlyphs"
text-anchor="start" opacity="0" stroke-opacity="0">Title: </text>
<g class="stroked-text"><desc>Title: </desc>
<path d="M-199.3083 -15.2956
L-198.1654 -15.2956
" />
<path d="M-198.9868 -13.2956
L-198.7368 -15.2956
" />
<path d="M-197.7487 -13.2956
L-197.5821 -14.6289
" />
<path d="M-197.4987 -15.2956
L-197.6059 -15.2003
" />
<path d="M-197.6059 -15.2003
L-197.5226 -15.1051
" />
<path d="M-197.5226 -15.1051
L-197.4154 -15.2003
" />
<path d="M-197.4154 -15.2003
L-197.4987 -15.2956
" />
<path d="M-197.4987 -15.2956
L-197.5226 -15.1051
" />
<path d="M-196.9154 -14.6289
L-196.1535 -14.6289
" />
<path d="M-196.5464 -15.2956
L-196.7607 -13.5813
" />
<path d="M-196.7607 -13.5813
L-196.6892 -13.3908
" />
<path d="M-196.6892 -13.3908
L-196.5107 -13.2956
" />
<path d="M-196.5107 -13.2956
L-196.3202 -13.2956
" />
<path d="M-195.3678 -13.2956
L-195.5464 -13.3908
" />
<path d="M-195.5464 -13.3908
L-195.6178 -13.5813
" />
<path d="M-195.6178 -13.5813
L-195.4035 -15.2956
" />
<path d="M-193.8321 -13.3908
L-194.0345 -13.2956
" />
<path d="M-194.0345 -13.2956
L-194.4154 -13.2956
" />
<path d="M-194.4154 -13.2956
L-194.5940 -13.3908
" />
<path d="M-194.5940 -13.3908
L-194.6654 -13.5813
" />
<path d="M-194.6654 -13.5813
L-194.5702 -14.3432
" />
<path d="M-194.5702 -14.3432
L-194.4511 -14.5337
" />
<path d="M-194.4511 -14.5337
L-194.2487 -14.6289
" />
<path d="M-194.2487 -14.6289
L-193.8678 -14.6289
" />
<path d="M-193.8678 -14.6289
L-193.6892 -14.5337
" />
<path d="M-193.6892 -14.5337
L-193.6178 -14.3432
" />
<path d="M-193.6178 -14.3432
L-193.6416 -14.1527
" />
<path d="M-193.6416 -14.1527
L-194.6178 -13.9622
" />
<path d="M-192.8678 -13.4860
L-192.7845 -13.3908
" />
<path d="M-192.7845 -13.3908
L-192.8916 -13.2956
" />
<path d="M-192.8916 -13.2956
L-192.9749 -13.3908
" />
<path d="M-192.9749 -13.3908
L-192.8678 -13.4860
" />
<path d="M-192.8678 -13.4860
L-192.8916 -13.2956
" />
<path d="M-192.7368 -14.5337
L-192.6535 -14.4384
" />
<path d="M-192.6535 -14.4384
L-192.7607 -14.3432
" />
<path d="M-192.7607 -14.3432
L-192.8440 -14.4384
" />
<path d="M-192.8440 -14.4384
L-192.7368 -14.5337
" />
<path d="M-192.7368 -14.5337
L-192.7607 -14.3432
" />
</g></g>
<g style="fill:none; 
stroke:#C872AB; stroke-width:0.1500; stroke-opacity:1; 
stroke-linecap:round; stroke-linejoin:round;">
<text x="-200.0000" y="-17.0500"
textLength="21.7214" font-size="2.0000" lengthAdjust="spacingAndGlyphs"
text-anchor="start" opacity="0" stroke-opacity="0">File: ???.kicad_pcb</text>
<g class="stroked-text"><desc>File: ???.kicad_pcb</desc>
<path d="M-199.0442 -17.8996
L-199.5442 -17.8996
" />
<path d="M-199.5442 -17.1139
L-199.5442 -18.6139
" />
<path d="M-199.5442 -18.6139
L-198.8299 -18.6139
" />
<path d="M-198.2585 -17.1139
L-198.2585 -18.1139
" />
<path d="M-198.2585 -18.6139
L-198.3299 -18.5424
" />
<path d="M-198.3299 -18.5424
L-198.2585 -18.4710
" />
<path d="M-198.2585 -18.4710
L-198.1870 -18.5424
" />
<path d="M-198.1870 -18.5424
L-198.2585 -18.6139
" />
<path d="M-198.2585 -18.6139
L-198.2585 -18.4710
" />
<path d="M-197.3299 -17.1139
L-197.4727 -17.1853
" />
<path d="M-197.4727 -17.1853
L-197.5442 -17.3282
" />
<path d="M-197.5442 -17.3282
L-197.5442 -18.6139
" />
<path d="M-196.1870 -17.1853
L-196.3299 -17.1139
" />
<path d="M-196.3299 -17.1139
L-196.6156 -17.1139
" />
<path d="M-196.6156 -17.1139
L-196.7585 -17.1853
" />
<path d="M-196.7585 -17.1853
L-196.8299 -17.3282
" />
<path d="M-196.8299 -17.3282
L-196.8299 -17.8996
" />
<path d="M-196.8299 -17.8996
L-196.7585 -18.0424
" />
<path d="M-196.7585 -18.0424
L-196.6156 -18.1139
" />
<path d="M-196.6156 -18.1139
L-196.3299 -18.1139
" />
<path d="M-196.3299 -18.1139
L-196.1870 -18.0424
" />
<path d="M-196.1870 -18.0424
L-196.1156 -17.8996
" />
<path d="M-196.1156 -17.8996
L-196.1156 -17.7567
" />
<path d="M-196.1156 -17.7567
L-196.8299 -17.6139
" />
<path d="M-195.4727 -17.2567
L-195.4013 -17.1853
" />
<path d="M-195.4013 -17.1853
L-195.4727 -17.1139
" />
<path d="M-195.4727 -17.1139
L-195.5442 -17.1853
" />
<path d="M-195.5442 -17.1853
L-195.4727 -17.2567
" />
<path d="M-195.4727 -17.2567
L-195.4727 -17.1139
" />
<path d="M-195.4727 -18.0424
L-195.4013 -17.9710
" />
<path d="M-195.4013 -17.9710
L-195.4727 -17.8996
" />
<path d="M-195.4727 -17.8996
L-195.5442 -17.9710
" />
<path d="M-195.5442 -17.9710
L-195.4727 -18.0424
" />
<path d="M-195.4727 -18.0424
L-195.4727 -17.8996
" />
<path d="M-193.4013 -17.2567
L-193.3299 -17.1853
" />
<path d="M-193.3299 -17.1853
L-193.4013 -17.1139
" />
<path d="M-193.4013 -17.1139
L-193.4727 -17.1853
" />
<path d="M-193.4727 -17.1853
L-193.4013 -17.2567
" />
<path d="M-193.4013 -17.2567
L-193.4013 -17.1139
" />
<path d="M-193.6870 -18.5424
L-193.5442 -18.6139
" />
<path d="M-193.5442 -18.6139
L-193.1870 -18.6139
" />
<path d="M-193.1870 -18.6139
L-193.0442 -18.5424
" />
<path d="M-193.0442 -18.5424
L-192.9727 -18.3996
" />
<path d="M-192.9727 -18.3996
L-192.9727 -18.2567
" />
<path d="M-192.9727 -18.2567
L-193.0442 -18.1139
" />
<path d="M-193.0442 -18.1139
L-193.1156 -18.0424
" />
<path d="M-193.1156 -18.0424
L-193.2585 -17.9710
" />
<path d="M-193.2585 -17.9710
L-193.3299 -17.8996
" />
<path d="M-193.3299 -17.8996
L-193.4013 -17.7567
" />
<path d="M-193.4013 -17.7567
L-193.4013 -17.6853
" />
<path d="M-192.1156 -17.2567
L-192.0442 -17.1853
" />
<path d="M-192.0442 -17.1853
L-192.1156 -17.1139
" />
<path d="M-192.1156 -17.1139
L-192.1870 -17.1853
" />
<path d="M-192.1870 -17.1853
L-192.1156 -17.2567
" />
<path d="M-192.1156 -17.2567
L-192.1156 -17.1139
" />
<path d="M-192.4013 -18.5424
L-192.2585 -18.6139
" />
<path d="M-192.2585 -18.6139
L-191.9013 -18.6139
" />
<path d="M-191.9013 -18.6139
L-191.7585 -18.5424
" />
<path d="M-191.7585 -18.5424
L-191.6870 -18.3996
" />
<path d="M-191.6870 -18.3996
L-191.6870 -18.2567
" />
<path d="M-191.6870 -18.2567
L-191.7585 -18.1139
" />
<path d="M-191.7585 -18.1139
L-191.8299 -18.0424
" />
<path d="M-191.8299 -18.0424
L-191.9727 -17.9710
" />
<path d="M-191.9727 -17.9710
L-192.0442 -17.8996
" />
<path d="M-192.0442 -17.8996
L-192.1156 -17.7567
" />
<path d="M-192.1156 -17.7567
L-192.1156 -17.6853
" />
<path d="M-190.8299 -17.2567
L-190.7585 -17.1853
" />
<path d="M-190.7585 -17.1853
L-190.8299 -17.1139
" />
<path d="M-190.8299 -17.1139
L-190.9013 -17.1853
" />
<path d="M-190.9013 -17.1853
L-190.8299 -17.2567
" />
<path d="M-190.8299 -17.2567
L-190.8299 -17.1139
" />
<path d="M-191.1156 -18.5424
L-190.9727 -18.6139
" />
<path d="M-190.9727 -18.6139
L-190.6156 -18.6139
" />
<path d="M-190.6156 -18.6139
L-190.4727 -18.5424
" />
<path d="M-190.4727 -18.5424
L-190.4013 -18.3996
" />
<path d="M-190.4013 -18.3996
L-190.4013 -18.2567
" />
<path d="M-190.4013 -18.2567
L-190.4727 -18.1139
" />
<path d="M-190.4727 -18.1139
L-190.5442 -18.0424
" />
<path d="M-190.5442 -18.0424
L-190.6870 -17.9710
" />
<path d="M-190.6870 -17.9710
L-190.7585 -17.8996
" />
<path d="M-190.7585 -17.8996
L-190.8299 -17.7567
" />
<path d="M-190.8299 -17.7567
L-190.8299 -17.6853
" />
<path d="M-189.7585 -17.2567
L-189.6870 -17.1853
" />
<path d="M-189.6870 -17.1853
L-189.7585 -17.1139
" />
<path d="M-189.7585 -17.1139
L-189.8299 -17.1853
" />
<path d="M-189.8299 -17.1853
L-189.7585 -17.2567
" />
<path d="M-189.7585 -17.2567
L-189.7585 -17.1139
" />
<path d="M-189.0442 -17.1139
L-189.0442 -18.6139
" />
<path d="M-188.9013 -17.6853
L-188.4727 -17.1139
" />
<path d="M-188.4727 -18.1139
L-189.0442 -17.5424
" />
<path d="M-187.8299 -17.1139
L-187.8299 -18.1139
" />
<path d="M-187.8299 -18.6139
L-187.9013 -18.5424
" />
<path d="M-187.9013 -18.5424
L-187.8299 -18.4710
" />
<path d="M-187.8299 -18.4710
L-187.7585 -18.5424
" />
<path d="M-187.7585 -18.5424
L-187.8299 -18.6139
" />
<path d="M-187.8299 -18.6139
L-187.8299 -18.4710
" />
<path d="M-186.4727 -17.1853
L-186.6156 -17.1139
" />
<path d="M-186.6156 -17.1139
L-186.9013 -17.1139
" />
<path d="M-186.9013 -17.1139
L-187.0442 -17.1853
" />
<path d="M-187.0442 -17.1853
L-187.1156 -17.2567
" />
<path d="M-187.1156 -17.2567
L-187.1870 -17.3996
" />
<path d="M-187.1870 -17.3996
L-187.1870 -17.8282
" />
<path d="M-187.1870 -17.8282
L-187.1156 -17.9710
" />
<path d="M-187.1156 -17.9710
L-187.0442 -18.0424
" />
<path d="M-187.0442 -18.0424
L-186.9013 -18.1139
" />
<path d="M-186.9013 -18.1139
L-186.6156 -18.1139
" />
<path d="M-186.6156 -18.1139
L-186.4727 -18.0424
" />
<path d="M-185.1870 -17.1139
L-185.1870 -17.8996
" />
<path d="M-185.1870 -17.8996
L-185.2585 -18.0424
" />
<path d="M-185.2585 -18.0424
L-185.4013 -18.1139
" />
<path d="M-185.4013 -18.1139
L-185.6870 -18.1139
" />
<path d="M-185.6870 -18.1139
L-185.8299 -18.0424
" />
<path d="M-185.1870 -17.1853
L-185.3299 -17.1139
" />
<path d="M-185.3299 -17.1139
L-185.6870 -17.1139
" />
<path d="M-185.6870 -17.1139
L-185.8299 -17.1853
" />
<path d="M-185.8299 -17.1853
L-185.9013 -17.3282
" />
<path d="M-185.9013 -17.3282
L-185.9013 -17.4710
" />
<path d="M-185.9013 -17.4710
L-185.8299 -17.6139
" />
<path d="M-185.8299 -17.6139
L-185.6870 -17.6853
" />
<path d="M-185.6870 -17.6853
L-185.3299 -17.6853
" />
<path d="M-185.3299 -17.6853
L-185.1870 -17.7567
" />
<path d="M-183.8299 -17.1139
L-183.8299 -18.6139
" />
<path d="M-183.8299 -17.1853
L-183.9727 -17.1139
" />
<path d="M-183.9727 -17.1139
L-184.2585 -17.1139
" />
<path d="M-184.2585 -17.1139
L-184.4013 -17.1853
" />
<path d="M-184.4013 -17.1853
L-184.4727 -17.2567
" />
<path d="M-184.4727 -17.2567
L-184.5442 -17.3996
" />
<path d="M-184.5442 -17.3996
L-184.5442 -17.8282
" />
<path d="M-184.5442 -17.8282
L-184.4727 -17.9710
" />
<path d="M-184.4727 -17.9710
L-184.4013 -18.0424
" />
<path d="M-184.4013 -18.0424
L-184.2585 -18.1139
" />
<path d="M-184.2585 -18.1139
L-183.9727 -18.1139
" />
<path d="M-183.9727 -18.1139
L-183.8299 -18.0424
" />
<path d="M-183.4727 -16.9710
L-182.3299 -16.9710
" />
<path d="M-181.9727 -18.1139
L-181.9727 -16.6139
" />
<path d="M-181.9727 -18.0424
L-181.8299 -18.1139
" />
<path d="M-181.8299 -18.1139
L-181.5442 -18.1139
" />
<path d="M-181.5442 -18.1139
L-181.4013 -18.0424
" />
<path d="M-181.4013 -18.0424
L-181.3299 -17.9710
" />
<path d="M-181.3299 -17.9710
L-181.2585 -17.8282
" />
<path d="M-181.2585 -17.8282
L-181.2585 -17.3996
" />
<path d="M-181.2585 -17.3996
L-181.3299 -17.2567
" />
<path d="M-181.3299 -17.2567
L-181.4013 -17.1853
" />
<path d="M-181.4013 -17.1853
L-181.5442 -17.1139
" />
<path d="M-181.5442 -17.1139
L-181.8299 -17.1139
" />
<path d="M-181.8299 -17.1139
L-181.9727 -17.1853
" />
<path d="M-179.9727 -17.1853
L-180.1156 -17.1139
" />
<path d="M-180.1156 -17.1139
L-180.4013 -17.1139
" />
<path d="M-180.4013 -17.1139
L-180.5442 -17.1853
" />
<path d="M-180.5442 -17.1853
L-180.6156 -17.2567
" />
<path d="M-180.6156 -17.2567
L-180.6870 -17.3996
" />
<path d="M-180.6870 -17.3996
L-180.6870 -17.8282
" />
<path d="M-180.6870 -17.8282
L-180.6156 -17.9710
" />
<path d="M-180.6156 -17.9710
L-180.5442 -18.0424
" />
<path d="M-180.5442 -18.0424
L-180.4013 -18.1139
" />
<path d="M-180.4013 -18.1139
L-180.1156 -18.1139
" />
<path d="M-180.1156 -18.1139
L-179.9727 -18.0424
" />
<path d="M-179.3299 -17.1139
L-179.3299 -18.6139
" />
<path d="M-179.3299 -18.0424
L-179.1870 -18.1139
" />
<path d="M-179.1870 -18.1139
L-178.9013 -18.1139
" />
<path d="M-178.9013 -18.1139
L-178.7585 -18.0424
" />
<path d="M-178.7585 -18.0424
L-178.6870 -17.9710
" />
<path d="M-178.6870 -17.9710
L-178.6156 -17.8282
" />
<path d="M-178.6156 -17.8282
L-178.6156 -17.3996
" />
<path d="M-178.6156 -17.3996
L-178.6870 -17.2567
" />
<path d="M-178.6870 -17.2567
L-178.7585 -17.1853
" />
<path d="M-178.7585 -17.1853
L-178.9013 -17.1139
" />
<path d="M-178.9013 -17.1139
L-179.1870 -17.1139
" />
<path d="M-179.1870 -17.1139
L-179.3299 -17.1853
" />
</g><path d="M-201.0000 -22.0000
L-93.0000 -22.0000
" />
<text x="-200.0000" y="-19.7500"
textLength="8.2214" font-size="2.0000" lengthAdjust="spacingAndGlyphs"
text-anchor="start" opacity="0" stroke-opacity="0">Sheet: </text>
<g class="stroked-text"><desc>Sheet: </desc>
<path d="M-199.6156 -19.8853
L-199.4013 -19.8139
" />
<path d="M-199.4013 -19.8139
L-199.0442 -19.8139
" />
<path d="M-199.0442 -19.8139
L-198.9013 -19.8853
" />
<path d="M-198.9013 -19.8853
L-198.8299 -19.9567
" />
<path d="M-198.8299 -19.9567
L-198.7585 -20.0996
" />
<path d="M-198.7585 -20.0996
L-198.7585 -20.2424
" />
<path d="M-198.7585 -20.2424
L-198.8299 -20.3853
" />
<path d="M-198.8299 -20.3853
L-198.9013 -20.4567
" />
<path d="M-198.9013 -20.4567
L-199.0442 -20.5282
" />
<path d="M-199.0442 -20.5282
L-199.3299 -20.5996
" />
<path d="M-199.3299 -20.5996
L-199.4727 -20.6710
" />
<path d="M-199.4727 -20.6710
L-199.5442 -20.7424
" />
<path d="M-199.5442 -20.7424
L-199.6156 -20.8853
" />
<path d="M-199.6156 -20.8853
L-199.6156 -21.0282
" />
<path d="M-199.6156 -21.0282
L-199.5442 -21.1710
" />
<path d="M-199.5442 -21.1710
L-199.4727 -21.2424
" />
<path d="M-199.4727 -21.2424
L-199.3299 -21.3139
" />
<path d="M-199.3299 -21.3139
L-198.9727 -21.3139
" />
<path d="M-198.9727 -21.3139
L-198.7585 -21.2424
" />
<path d="M-198.1156 -19.8139
L-198.1156 -21.3139
" />
<path d="M-197.4727 -19.8139
L-197.4727 -20.5996
" />
<path d="M-197.4727 -20.5996
L-197.5442 -20.7424
" />
<path d="M-197.5442 -20.7424
L-197.6870 -20.8139
" />
<path d="M-197.6870 -20.8139
L-197.9013 -20.8139
" />
<path d="M-197.9013 -20.8139
L-198.0442 -20.7424
" />
<path d="M-198.0442 -20.7424
L-198.1156 -20.6710
" />
<path d="M-196.1870 -19.8853
L-196.3299 -19.8139
" />
<path d="M-196.3299 -19.8139
L-196.6156 -19.8139
" />
<path d="M-196.6156 -19.8139
L-196.7585 -19.8853
" />
<path d="M-196.7585 -19.8853
L-196.8299 -20.0282
" />
<path d="M-196.8299 -20.0282
L-196.8299 -20.5996
" />
<path d="M-196.8299 -20.5996
L-196.7585 -20.7424
" />
<path d="M-196.7585 -20.7424
L-196.6156 -20.8139
" />
<path d="M-196.6156 -20.8139
L-196.3299 -20.8139
" />
<path d="M-196.3299 -20.8139
L-196.1870 -20.7424
" />
<path d="M-196.1870 -20.7424
L-196.1156 -20.5996
" />
<path d="M-196.1156 -20.5996
L-196.1156 -20.4567
" />
<path d="M-196.1156 -20.4567
L-196.8299 -20.3139
" />
<path d="M-194.9013 -19.8853
L-195.0442 -19.8139
" />
<path d="M-195.0442 -19.8139
L-195.3299 -19.8139
" />
<path d="M-195.3299 -19.8139
L-195.4727 -19.8853
" />
<path d="M-195.4727 -19.8853
L-195.5442 -20.0282
" />
<path d="M-195.5442 -20.0282
L-195.5442 -20.5996
" />
<path d="M-195.5442 -20.5996
L-195.4727 -20.7424
" />
<path d="M-195.4727 -20.7424
L-195.3299 -20.8139
" />
<path d="M-195.3299 -20.8139
L-195.0442 -20.8139
" />
<path d="M-195.0442 -20.8139
L-194.9013 -20.7424
" />
<path d="M-194.9013 -20.7424
L-194.8299 -20.5996
" />
<path d="M-194.8299 -20.5996
L-194.8299 -20.4567
" />
<path d="M-194.8299 -20.4567
L-195.5442 -20.3139
" />
<path d="M-194.4013 -20.8139
L-193.8299 -20.8139
" />
<path d="M-194.1870 -21.3139
L-194.1870 -20.0282
" />
<path d="M-194.1870 -20.0282
L-194.1156 -19.8853
" />
<path d="M-194.1156 -19.8853
L-193.9727 -19.8139
" />
<path d="M-193.9727 -19.8139
L-193.8299 -19.8139
" />
<path d="M-193.3299 -19.9567
L-193.2585 -19.8853
" />
<path d="M-193.2585 -19.8853
L-193.3299 -19.8139
" />
<path d="M-193.3299 -19.8139
L-193.4013 -19.8853
" />
<path d="M-193.4013 -19.8853
L-193.3299 -19.9567
" />
<path d="M-193.3299 -19.9567
L-193.3299 -19.8139
" />
<path d="M-193.3299 -20.7424
L-193.2585 -20.6710
" />
<path d="M-193.2585 -20.6710
L-193.3299 -20.5996
" />
<path d="M-193.3299 -20.5996
L-193.4013 -20.6710
" />
<path d="M-193.4013 -20.6710
L-193.3299 -20.7424
" />
<path d="M-193.3299 -20.7424
L-193.3299 -20.5996
" />
</g></g>
<g style="fill:none; 
stroke:#C872AB; stroke-width:0.3000; stroke-opacity:1; 
stroke-linecap:round; stroke-linejoin:round;">
<text x="-200.0000" y="-22.7500"
textLength="0.9000" font-size="2.0000" lengthAdjust="spacingAndGlyphs"
text-anchor="start" opacity="0" stroke-opacity="0"></text>
<g class="stroked-text"><desc></desc>
</g></g>
<g style="fill:none; 
stroke:#C872AB; stroke-width:0.1500; stroke-opacity:1; 
stroke-linecap:round; stroke-linejoin:round;">
<text x="-200.0000" y="-25.7500"
textLength="0.4500" font-size="2.0000" lengthAdjust="spacingAndGlyphs"
text-anchor="start" opacity="0" stroke-opacity="0"></text>
<g class="stroked-text"><desc></desc>
</g><text x="-200.0000" y="-28.7500"
textLength="0.4500" font-size="2.0000" lengthAdjust="spacingAndGlyphs"
text-anchor="start" opacity="0" stroke-opacity="0"></text>
<g class="stroked-text"><desc></desc>
</g><text x="-200.0000" y="-31.7500"
textLength="0.4500" font-size="2.0000" lengthAdjust="spacingAndGlyphs"
text-anchor="start" opacity="0" stroke-opacity="0"></text>
<g class="stroked-text"><desc></desc>
</g><text x="-200.0000" y="-34.7500"
textLength="0.4500" font-size="2.0000" lengthAdjust="spacingAndGlyphs"
text-anchor="start" opacity="0" stroke-opacity="0"></text>
<g class="stroked-text"><desc></desc>
</g><path d="M-181.0000 -12.0000
L-181.0000 -9.0000
" />
<path d="M-117.0000 -12.0000
L-117.0000 -5.5000
" />
<path style="fill:#C83434; fill-opacity:1.0000; stroke:none;fill-rule:evenodd;"
d="M 0.1250,5.7300
0.1250,4.0300
3.6250,4.0300
3.6250,5.7300
Z" /> 
</g>
<g style="fill:none; 
stroke:#C83434; stroke-width:1.7000; stroke-opacity:1; 
stroke-linecap:round; stroke-linejoin:round;">
<path d="M0.9250 7.4200
L2.8250 7.4200
" />
<path d="M0.9250 9.9600
L2.8250 9.9600
" />
<path d="M0.9250 12.5000
L2.8250 12.5000
" />
<path d="M0.9250 15.0400
L2.8250 15.0400
" />
<path d="M0.9250 17.5800
L2.8250 17.5800
" />
<path d="M0.9250 20.1200
L2.8250 20.1200
" />
<path d="M16.1750 20.1200
L18.0750 20.1200
" />
<path d="M16.1750 17.5800
L18.0750 17.5800
" />
<path d="M16.1750 15.0400
L18.0750 15.0400
" />
<path d="M16.1250 12.5000
L18.1250 12.5000
" />
<path d="M16.1250 9.9600
L18.1250 9.9600
" />
<path d="M16.1250 7.4200
L18.1250 7.4200
" />
<path d="M16.1250 4.8800
L18.1250 4.8800
" />
</g>
<g style="fill:#C83434; fill-opacity:1.0000; stroke:none;">
<circle cx="12.0400" cy="9.9200" r="1.2000" /> 
<circle cx="6.9600" cy="15.0000" r="1.2000" /> 
<circle cx="12.0400" cy="27.9200" r="1.2000" /> 
<circle cx="6.9600" cy="33.0000" r="1.2000" /> 
<circle cx="12.0400" cy="45.9200" r="1.2000" /> 
<circle cx="6.9600" cy="51.0000" r="1.2000" /> 
</g>
<g style="fill:none; 
stroke:#C83434; stroke-width:0.4500; stroke-opacity:1; 
stroke-linecap:round; stroke-linejoin:round;">
<path d="M17.1250 12.5000
L17.0000 12.5000
" />
<path d="M17.0000 12.5000
L17.0000 9.9200
" />
<path d="M17.0000 9.9200
L12.0400 9.9200
" />
<path d="M17.1250 15.0400
L17.5000 15.0400
" />
<path d="M17.5000 15.0400
L17.5000 27.9200
" />
<path d="M17.5000 27.9200
L12.0400 27.9200
" />
<path d="M17.1250 17.5800
L18.0000 17.5800
" />
<path d="M18.0000 17.5800
L18.0000 45.9200
" />
<path d="M18.0000 45.9200
L12.0400 45.9200
" />
<path style="fill:#4D7FC4; fill-opacity:1.0000; stroke:none;fill-rule:evenodd;"
d="M 0.1250,5.7300
0.1250,4.0300
3.6250,4.0300
3.6250,5.7300
Z" /> 
</g>
<g style="fill:none; 
stroke:#4D7FC4; stroke-width:1.7000; stroke-opacity:1; 
stroke-linecap:round; stroke-linejoin:round;">
<path d="M0.9250 7.4200
L2.8250 7.4200
" />
<path d="M0.9250 9.9600
L2.8250 9.9600
" />
<path d="M0.9250 12.5000
L2.8250 12.5000
" />
<path d="M0.9250 15.0400
L2.8250 15.0400
" />
<path d="M0.9250 17.5800
L2.8250 17.5800
" />
<path d="M0.9250 20.1200
L2.8250 20.1200
" />
<path d="M16.1750 20.1200
L18.0750 20.1200
" />
<path d="M16.1750 17.5800
L18.0750 17.5800
" />
<path d="M16.1750 15.0400
L18.0750 15.0400
" />
<path d="M16.1250 12.5000
L18.1250 12.5000
" />
<path d="M16.1250 9.9600
L18.1250 9.9600
" />
<path d="M16.1250 7.4200
L18.1250 7.4200
" />
<path d="M16.1250 4.8800
L18.1250 4.8800
" />
</g>
<g style="fill:#4D7FC4; fill-opacity:1.0000; stroke:none;">
<circle cx="12.0400" cy="9.9200" r="1.2000" /> 
<circle cx="6.9600" cy="15.0000" r="1.2000" /> 
<circle cx="12.0400" cy="27.9200" r="1.2000" /> 
<circle cx="6.9600" cy="33.0000" r="1.2000" /> 
<circle cx="12.0400" cy="45.9200" r="1.2000" /> 
<circle cx="6.9600" cy="51.0000" r="1.2000" /> 
</g>
<g style="fill:none; 
stroke:#4D7FC4; stroke-width:0.4500; stroke-opacity:1; 
stroke-linecap:round; stroke-linejoin:round;">
<path d="M17.1250 7.4200
L1.8000 7.4200
" />
<path d="M1.8000 7.4200
L1.8000 56.0800
" />
<path d="M1.8000 15.0000
L6.9600 15.0000
" />
<path d="M1.8000 33.0000
L6.9600 33.0000
" />
<path d="M1.8000 51.0000
L6.9600 51.0000
" />
</g>
<g style="fill:none; 
stroke:#F2EDA1; stroke-width:0.1500; stroke-opacity:1; 
stroke-linecap:round; stroke-linejoin:round;">
<text x="9.5000" y="11.5000"
textLength="2.2500" font-size="1.3333" lengthAdjust="spacingAndGlyphs"
text-anchor="middle" opacity="0" stroke-opacity="0">U1</text>
<g class="stroked-text"><desc>U1</desc>
<path d="M8.7381 10.4548
L8.7381 11.2643
" />
<path d="M8.7381 11.2643
L8.7857 11.3596
" />
<path d="M8.7857 11.3596
L8.8333 11.4072
" />
<path d="M8.8333 11.4072
L8.9286 11.4548
" />
<path d="M8.9286 11.4548
L9.1190 11.4548
" />
<path d="M9.1190 11.4548
L9.2143 11.4072
" />
<path d="M9.2143 11.4072
L9.2619 11.3596
" />
<path d="M9.2619 11.3596
L9.3095 11.2643
" />
<path d="M9.3095 11.2643
L9.3095 10.4548
" />
<path d="M10.3095 11.4548
L9.7381 11.4548
" />
<path d="M10.0238 11.4548
L10.0238 10.4548
" />
<path d="M10.0238 10.4548
L9.9286 10.5977
" />
<path d="M9.9286 10.5977
L9.8333 10.6929
" />
<path d="M9.8333 10.6929
L9.7381 10.7405
" />
</g><text x="9.5000" y="7.3000"
textLength="3.2976" font-size="1.3333" lengthAdjust="spacingAndGlyphs"
text-anchor="middle" opacity="0" stroke-opacity="0">SW1</text>
<g class="stroked-text"><desc>SW1</desc>
<path d="M8.1667 7.2072
L8.3095 7.2548
" />
<path d="M8.3095 7.2548
L8.5476 7.2548
" />
<path d="M8.5476 7.2548
L8.6429 7.2072
" />
<path d="M8.6429 7.2072
L8.6905 7.1596
" />
<path d="M8.6905 7.1596
L8.7381 7.0643
" />
<path d="M8.7381 7.0643
L8.7381 6.9691
" />
<path d="M8.7381 6.9691
L8.6905 6.8739
" />
<path d="M8.6905 6.8739
L8.6429 6.8262
" />
<path d="M8.6429 6.8262
L8.5476 6.7786
" />
<path d="M8.5476 6.7786
L8.3571 6.7310
" />
<path d="M8.3571 6.7310
L8.2619 6.6834
" />
<path d="M8.2619 6.6834
L8.2143 6.6358
" />
<path d="M8.2143 6.6358
L8.1667 6.5405
" />
<path d="M8.1667 6.5405
L8.1667 6.4453
" />
<path d="M8.1667 6.4453
L8.2143 6.3501
" />
<path d="M8.2143 6.3501
L8.2619 6.3024
" />
<path d="M8.2619 6.3024
L8.3571 6.2548
" />
<path d="M8.3571 6.2548
L8.5952 6.2548
" />
<path d="M8.5952 6.2548
L8.7381 6.3024
" />
<path d="M9.0714 6.2548
L9.3095 7.2548
" />
<path d="M9.3095 7.2548
L9.5000 6.5405
" />
<path d="M9.5000 6.5405
L9.6905 7.2548
" />
<path d="M9.6905 7.2548
L9.9286 6.2548
" />
<path d="M10.8333 7.2548
L10.2619 7.2548
" />
<path d="M10.5476 7.2548
L10.5476 6.2548
" />
<path d="M10.5476 6.2548
L10.4524 6.3977
" />
<path d="M10.4524 6.3977
L10.3571 6.4929
" />
<path d="M10.3571 6.4929
L10.2619 6.5405
" />
</g><text x="9.5000" y="25.3000"
textLength="3.2976" font-size="1.3333" lengthAdjust="spacingAndGlyphs"
text-anchor="middle" opacity="0" stroke-opacity="0">SW2</text>
<g class="stroked-text"><desc>SW2</desc>
<path d="M8.1667 25.2072
L8.3095 25.2548
" />
<path d="M8.3095 25.2548
L8.5476 25.2548
" />
<path d="M8.5476 25.2548
L8.6429 25.2072
" />
<path d="M8.6429 25.2072
L8.6905 25.1596
" />
<path d="M8.6905 25.1596
L8.7381 25.0643
" />
<path d="M8.7381 25.0643
L8.7381 24.9691
" />
<path d="M8.7381 24.9691
L8.6905 24.8739
" />
<path d="M8.6905 24.8739
L8.6429 24.8262
" />
<path d="M8.6429 24.8262
L8.5476 24.7786
" />
<path d="M8.5476 24.7786
L8.3571 24.7310
" />
<path d="M8.3571 24.7310
L8.2619 24.6834
" />
<path d="M8.2619 24.6834
L8.2143 24.6358
" />
<path d="M8.2143 24.6358
L8.1667 24.5405
" />
<path d="M8.1667 24.5405
L8.1667 24.4453
" />
<path d="M8.1667 24.4453
L8.2143 24.3501
" />
<path d="M8.2143 24.3501
L8.2619 24.3024
" />
<path d="M8.2619 24.3024
L8.3571 24.2548
" />
<path d="M8.3571 24.2548
L8.5952 24.2548
" />
<path d="M8.5952 24.2548
L8.7381 24.3024
" />
<path d="M9.0714 24.2548
L9.3095 25.2548
" />
<path d="M9.3095 25.2548
L9.5000 24.5405
" />
<path d="M9.5000 24.5405
L9.6905 25.2548
" />
<path d="M9.6905 25.2548
L9.9286 24.2548
" />
<path d="M10.2619 24.3501
L10.3095 24.3024
" />
<path d="M10.3095 24.3024
L10.4048 24.2548
" />
<path d="M10.4048 24.2548
L10.6429 24.2548
" />
<path d="M10.6429 24.2548
L10.7381 24.3024
" />
<path d="M10.7381 24.3024
L10.7857 24.3501
" />
<path d="M10.7857 24.3501
L10.8333 24.4453
" />
<path d="M10.8333 24.4453
L10.8333 24.5405
" />
<path d="M10.8333 24.5405
L10.7857 24.6834
" />
<path d="M10.7857 24.6834
L10.2143 25.2548
" />
<path d="M10.2143 25.2548
L10.8333 25.2548
" />
</g><text x="9.5000" y="43.3000"
textLength="3.2976" font-size="1.3333" lengthAdjust="spacingAndGlyphs"
text-anchor="middle" opacity="0" stroke-opacity="0">SW3</text>
<g class="stroked-text"><desc>SW3</desc>
<path d="M8.1667 43.2072
L8.3095 43.2548
" />
<path d="M8.3095 43.2548
L8.5476 43.2548
" />
<path d="M8.5476 43.2548
L8.6429 43.2072
" />
<path d="M8.6429 43.2072
L8.6905 43.1596
" />
<path d="M8.6905 43.1596
L8.7381 43.0643
" />
<path d="M8.7381 43.0643
L8.7381 42.9691
" />
<path d="M8.7381 42.9691
L8.6905 42.8739
" />
<path d="M8.6905 42.8739
L8.6429 42.8262
" />
<path d="M8.6429 42.8262
L8.5476 42.7786
" />
<path d="M8.5476 42.7786
L8.3571 42.7310
" />
<path d="M8.3571 42.7310
L8.2619 42.6834
" />
<path d="M8.2619 42.6834
L8.2143 42.6358
" />
<path d="M8.2143 42.6358
L8.1667 42.5405
" />
<path d="M8.1667 42.5405
L8.1667 42.4453
" />
<path d="M8.1667 42.4453
L8.2143 42.3501
" />
<path d="M8.2143 42.3501
L8.2619 42.3024
" />
<path d="M8.2619 42.3024
L8.3571 42.2548
" />
<path d="M8.3571 42.2548
L8.5952 42.2548
" />
<path d="M8.5952 42.2548
L8.7381 42.3024
" />
<path d="M9.0714 42.2548
L9.3095 43.2548
" />
<path d="M9.3095 43.2548
L9.5000 42.5405
" />
<path d="M9.5000 42.5405
L9.6905 43.2548
" />
<path d="M9.6905 43.2548
L9.9286 42.2548
" />
<path d="M10.2143 42.2548
L10.8333 42.2548
" />
<path d="M10.8333 42.2548
L10.5000 42.6358
" />
<path d="M10.5000 42.6358
L10.6429 42.6358
" />
<path d="M10.6429 42.6358
L10.7381 42.6834
" />
<path d="M10.7381 42.6834
L10.7857 42.7310
" />
<path d="M10.7857 42.7310
L10.8333 42.8262
" />
<path d="M10.8333 42.8262
L10.8333 43.0643
" />
<path d="M10.8333 43.0643
L10.7857 43.1596
" />
<path d="M10.7857 43.1596
L10.7381 43.2072
" />
<path d="M10.7381 43.2072
L10.6429 43.2548
" />
<path d="M10.6429 43.2548
L10.3571 43.2548
" />
<path d="M10.3571 43.2548
L10.2619 43.2072
" />
<path d="M10.2619 43.2072
L10.2143 43.1596
" />
</g></g>
<g style="fill:none; 
stroke:#F2EDA1; stroke-width:0.1200; stroke-opacity:1; 
stroke-linecap:round; stroke-linejoin:round;">
<path d="M0.6000 2.0000
L18.4000 2.0000
" />
<path d="M18.4000 2.0000
L18.4000 23.0000
" />
<path d="M18.4000 23.0000
L0.6000 23.0000
" />
<path d="M0.6000 23.0000
L0.6000 2.0000
" />
<path style="fill:none; 
stroke:#F2EDA1; stroke-width:0.1200; stroke-opacity:1; 
stroke-linecap:round; stroke-linejoin:round;fill:none"
d="M 5.0000,0.6000
14.0000,0.6000
14.0000,7.9000
5.0000,7.9000
Z" /> 
<path d="M2.5000 8.0000
L16.5000 8.0000
" />
<path d="M16.5000 8.0000
L16.5000 22.0000
" />
<path d="M16.5000 22.0000
L2.5000 22.0000
" />
<path d="M2.5000 22.0000
L2.5000 8.0000
" />
<path d="M2.5000 26.0000
L16.5000 26.0000
" />
<path d="M16.5000 26.0000
L16.5000 40.0000
" />
<path d="M16.5000 40.0000
L2.5000 40.0000
" />
<path d="M2.5000 40.0000
L2.5000 26.0000
" />
<path d="M2.5000 44.0000
L16.5000 44.0000
" />
<path d="M16.5000 44.0000
L16.5000 58.0000
" />
<path d="M16.5000 58.0000
L2.5000 58.0000
" />
<path d="M2.5000 58.0000
L2.5000 44.0000
" />
<path style="fill:#D864FF; fill-opacity:0.4000; stroke:none;fill-rule:evenodd;"
d="M 0.1250,5.7300
0.1250,4.0300
3.6250,4.0300
3.6250,5.7300
Z" /> 
</g>
<g style="fill:none; 
stroke:#D864FF; stroke-width:1.7000; stroke-opacity:1; 
stroke-linecap:round; stroke-linejoin:round;">
<path d="M0.9250 7.4200
L2.8250 7.4200
" />
<path d="M0.9250 9.9600
L2.8250 9.9600
" />
<path d="M0.9250 12.5000
L2.8250 12.5000
" />
<path d="M0.9250 15.0400
L2.8250 15.0400
" />
<path d="M0.9250 17.5800
L2.8250 17.5800
" />
<path d="M0.9250 20.1200
L2.8250 20.1200
" />
<path d="M16.1750 20.1200
L18.0750 20.1200
" />
<path d="M16.1750 17.5800
L18.0750 17.5800
" />
<path d="M16.1750 15.0400
L18.0750 15.0400
" />
<path d="M16.1250 12.5000
L18.1250 12.5000
" />
<path d="M16.1250 9.9600
L18.1250 9.9600
" />
<path d="M16.1250 7.4200
L18.1250 7.4200
" />
<path d="M16.1250 4.8800
L18.1250 4.8800
" />
</g>
<g style="fill:#D864FF; fill-opacity:0.4000; stroke:none;">
<circle cx="4.4200" cy="12.4600" r="0.8750" /> 
<circle cx="14.5800" cy="12.4600" r="0.8750" /> 
<circle cx="9.5000" cy="15.0000" r="2.0000" /> 
<circle cx="12.0400" cy="9.9200" r="1.2000" /> 
<circle cx="6.9600" cy="15.0000" r="1.2000" /> 
<circle cx="4.4200" cy="30.4600" r="0.8750" /> 
<circle cx="14.5800" cy="30.4600" r="0.8750" /> 
<circle cx="9.5000" cy="33.0000" r="2.0000" /> 
<circle cx="12.0400" cy="27.9200" r="1.2000" /> 
<circle cx="6.9600" cy="33.0000" r="1.2000" /> 
<circle cx="4.4200" cy="48.4600" r="0.8750" /> 
<circle cx="14.5800" cy="48.4600" r="0.8750" /> 
<circle cx="9.5000" cy="51.0000" r="2.0000" /> 
<circle cx="12.0400" cy="45.9200" r="1.2000" /> 
<circle cx="6.9600" cy="51.0000" r="1.2000" /> 
<path style="fill:#02FFEE; fill-opacity:0.4000; stroke:none;fill-rule:evenodd;"
d="M 0.1250,5.7300
0.1250,4.0300
3.6250,4.0300
3.6250,5.7300
Z" /> 
</g>
<g style="fill:none; 
stroke:#02FFEE; stroke-width:1.7000; stroke-opacity:1; 
stroke-linecap:round; stroke-linejoin:round;">
<path d="M0.9250 7.4200
L2.8250 7.4200
" />
<path d="M0.9250 9.9600
L2.8250 9.9600
" />
<path d="M0.9250 12.5000
L2.8250 12.5000
" />
<path d="M0.9250 15.0400
L2.8250 15.0400
" />
<path d="M0.9250 17.5800
L2.8250 17.5800
" />
<path d="M0.9250 20.1200
L2.8250 20.1200
" />
<path d="M16.1750 20.1200
L18.0750 20.1200
" />
<path d="M16.1750 17.5800
L18.0750 17.5800
" />
<path d="M16.1750 15.0400
L18.0750 15.0400
" />
<path d="M16.1250 12.5000
L18.1250 12.5000
" />
<path d="M16.1250 9.9600
L18.1250 9.9600
" />
<path d="M16.1250 7.4200
L18.1250 7.4200
" />
<path d="M16.1250 4.8800
L18.1250 4.8800
" />
</g>
<g style="fill:#02FFEE; fill-opacity:0.4000; stroke:none;">
<circle cx="4.4200" cy="12.4600" r="0.8750" /> 
<circle cx="14.5800" cy="12.4600" r="0.8750" /> 
<circle cx="9.5000" cy="15.0000" r="2.0000" /> 
<circle cx="12.0400" cy="9.9200" r="1.2000" /> 
<circle cx="6.9600" cy="15.0000" r="1.2000" /> 
<circle cx="4.4200" cy="30.4600" r="0.8750" /> 
<circle cx="14.5800" cy="30.4600" r="0.8750" /> 
<circle cx="9.5000" cy="33.0000" r="2.0000" /> 
<circle cx="12.0400" cy="27.9200" r="1.2000" /> 
<circle cx="6.9600" cy="33.0000" r="1.2000" /> 
<circle cx="4.4200" cy="48.4600" r="0.8750" /> 
<circle cx="14.5800" cy="48.4600" r="0.8750" /> 
<circle cx="9.5000" cy="51.0000" r="2.0000" /> 
<circle cx="12.0400" cy="45.9200" r="1.2000" /> 
<circle cx="6.9600" cy="51.0000" r="1.2000" /> 
<path style="fill:none; 
stroke:#D0D2CD; stroke-width:0.1000; stroke-opacity:1; 
stroke-linecap:round; stroke-linejoin:round;fill:none"
d="M 0.0000,0.0000
19.0000,0.0000
19.0000,56.5000
0.0000,56.5000
Z" /> 
</g>
<g style="fill:#FFFFFF; fill-opacity:1.0000; stroke:none;">
<circle cx="1.8750" cy="4.8800" r="0.5000" /> 
</g>
<g style="fill:#FFFFFF; fill-opacity:1.0000; stroke:none;">
<circle cx="1.8750" cy="7.4200" r="0.5000" /> 
</g>
<g style="fill:#FFFFFF; fill-opacity:1.0000; stroke:none;">
<circle cx="1.8750" cy="9.9600" r="0.5000" /> 
</g>
<g style="fill:#FFFFFF; fill-opacity:1.0000; stroke:none;">
<circle cx="1.8750" cy="12.5000" r="0.5000" /> 
</g>
<g style="fill:#FFFFFF; fill-opacity:1.0000; stroke:none;">
<circle cx="1.8750" cy="15.0400" r="0.5000" /> 
</g>
<g style="fill:#FFFFFF; fill-opacity:1.0000; stroke:none;">
<circle cx="1.8750" cy="17.5800" r="0.5000" /> 
</g>
<g style="fill:#FFFFFF; fill-opacity:1.0000; stroke:none;">
<circle cx="1.8750" cy="20.1200" r="0.5000" /> 
</g>
<g style="fill:#FFFFFF; fill-opacity:1.0000; stroke:none;">
<circle cx="17.1250" cy="20.1200" r="0.5000" /> 
</g>
<g style="fill:#FFFFFF; fill-opacity:1.0000; stroke:none;">
<circle cx="17.1250" cy="17.5800" r="0.5000" /> 
</g>
<g style="fill:#FFFFFF; fill-opacity:1.0000; stroke:none;">
<circle cx="17.1250" cy="15.0400" r="0.5000" /> 
</g>
<g style="fill:#FFFFFF; fill-opacity:1.0000; stroke:none;">
<circle cx="17.1250" cy="12.5000" r="0.5000" /> 
</g>
<g style="fill:#FFFFFF; fill-opacity:1.0000; stroke:none;">
<circle cx="17.1250" cy="9.9600" r="0.5000" /> 
</g>
<g style="fill:#FFFFFF; fill-opacity:1.0000; stroke:none;">
<circle cx="17.1250" cy="7.4200" r="0.5000" /> 
</g>
<g style="fill:#FFFFFF; fill-opacity:1.0000; stroke:none;">
<circle cx="17.1250" cy="4.8800" r="0.5000" /> 
</g>
<g style="fill:#000000; fill-opacity:1.0000; stroke:none;">
<circle cx="4.4200" cy="12.4600" r="0.8750" /> 
<circle cx="14.5800" cy="12.4600" r="0.8750" /> 
<circle cx="9.5000" cy="15.0000" r="2.0000" /> 
</g>
<g style="fill:#FFFFFF; fill-opacity:1.0000; stroke:none;">
<circle cx="12.0400" cy="9.9200" r="0.7350" /> 
</g>
<g style="fill:#FFFFFF; fill-opacity:1.0000; stroke:none;">
<circle cx="6.9600" cy="15.0000" r="0.7350" /> 
</g>
<g style="fill:#000000; fill-opacity:1.0000; stroke:none;">
<circle cx="4.4200" cy="30.4600" r="0.8750" /> 
<circle cx="14.5800" cy="30.4600" r="0.8750" /> 
<circle cx="9.5000" cy="33.0000" r="2.0000" /> 
</g>
<g style="fill:#FFFFFF; fill-opacity:1.0000; stroke:none;">
<circle cx="12.0400" cy="27.9200" r="0.7350" /> 
</g>
<g style="fill:#FFFFFF; fill-opacity:1.0000; stroke:none;">
<circle cx="6.9600" cy="33.0000" r="0.7350" /> 
</g>
<g style="fill:#000000; fill-opacity:1.0000; stroke:none;">
<circle cx="4.4200" cy="48.4600" r="0.8750" /> 
<circle cx="14.5800" cy="48.4600" r="0.8750" /> 
<circle cx="9.5000" cy="51.0000" r="2.0000" /> 
</g>
<g style="fill:#FFFFFF; fill-opacity:1.0000; stroke:none;">
<circle cx="12.0400" cy="45.9200" r="0.7350" /> 
</g>
<g style="fill:#FFFFFF; fill-opacity:1.0000; stroke:none;">
<circle cx="6.9600" cy="51.0000" r="0.7350" /> 
</g> 
</svg>
