<svg xmlns="http://www.w3.org/2000/svg" width="900" height="520" viewBox="0 0 900 520">
  <rect width="900" height="520" fill="#f7fafc"/>
  <text x="450" y="44" text-anchor="middle" font-family="Arial, sans-serif" font-size="28" font-weight="700" fill="#1f2937">Hackpad Case Assembly</text>

  <g transform="translate(100,90)">
    <text x="150" y="-20" text-anchor="middle" font-family="Arial, sans-serif" font-size="18" fill="#374151">Top Plate</text>
    <rect x="0" y="0" width="300" height="360" rx="16" fill="#ef5da8" stroke="#1f2937" stroke-width="4"/>
    <rect x="95" y="42" width="110" height="84" fill="#f7fafc" stroke="#1f2937" stroke-width="4"/>
    <rect x="95" y="138" width="110" height="84" fill="#f7fafc" stroke="#1f2937" stroke-width="4"/>
    <rect x="95" y="234" width="110" height="84" fill="#f7fafc" stroke="#1f2937" stroke-width="4"/>
    <circle cx="38" cy="38" r="15" fill="#f7fafc" stroke="#1f2937" stroke-width="4"/>
    <circle cx="262" cy="38" r="15" fill="#f7fafc" stroke="#1f2937" stroke-width="4"/>
    <circle cx="38" cy="322" r="15" fill="#f7fafc" stroke="#1f2937" stroke-width="4"/>
    <circle cx="262" cy="322" r="15" fill="#f7fafc" stroke="#1f2937" stroke-width="4"/>
  </g>

  <g transform="translate(510,90)">
    <text x="150" y="-20" text-anchor="middle" font-family="Arial, sans-serif" font-size="18" fill="#374151">Bottom Tray</text>
    <rect x="0" y="0" width="300" height="360" rx="16" fill="#9ca38b" stroke="#1f2937" stroke-width="4"/>
    <rect x="35" y="35" width="230" height="290" rx="8" fill="#f7fafc" stroke="#1f2937" stroke-width="4"/>
    <rect x="110" y="0" width="80" height="38" fill="#f7fafc" stroke="#1f2937" stroke-width="4"/>
    <circle cx="38" cy="38" r="24" fill="#9ca38b" stroke="#1f2937" stroke-width="4"/>
    <circle cx="38" cy="38" r="10" fill="#f7fafc" stroke="#1f2937" stroke-width="4"/>
    <circle cx="262" cy="38" r="24" fill="#9ca38b" stroke="#1f2937" stroke-width="4"/>
    <circle cx="262" cy="38" r="10" fill="#f7fafc" stroke="#1f2937" stroke-width="4"/>
    <circle cx="38" cy="322" r="24" fill="#9ca38b" stroke="#1f2937" stroke-width="4"/>
    <circle cx="38" cy="322" r="10" fill="#f7fafc" stroke="#1f2937" stroke-width="4"/>
    <circle cx="262" cy="322" r="24" fill="#9ca38b" stroke="#1f2937" stroke-width="4"/>
    <circle cx="262" cy="322" r="10" fill="#f7fafc" stroke="#1f2937" stroke-width="4"/>
  </g>

  <text x="450" y="490" text-anchor="middle" font-family="Arial, sans-serif" font-size="16" fill="#4b5563">The plate sits on the tray; screws pass through the four plate holes into the bottom posts.</text>
</svg>
